<svg width="33" height="32" viewBox="0 0 33 32" fill="none" xmlns="http://www.w3.org/2000/svg">
<path d="M23.1666 4.7465V2.6665C23.1666 2.11984 22.7132 1.6665 22.1666 1.6665C21.6199 1.6665 21.1666 2.11984 21.1666 2.6665V4.6665H12.4999V2.6665C12.4999 2.11984 12.0466 1.6665 11.4999 1.6665C10.9532 1.6665 10.4999 2.11984 10.4999 2.6665V4.7465C6.8999 5.07984 5.15323 7.2265 4.88657 10.4132C4.8599 10.7998 5.1799 11.1198 5.55323 11.1198H28.1132C28.4999 11.1198 28.8199 10.7865 28.7799 10.4132C28.5132 7.2265 26.7666 5.07984 23.1666 4.7465Z" fill="#1E293B"/>
<path d="M27.4999 13.1196H6.16659C5.43325 13.1196 4.83325 13.7196 4.83325 14.453V22.6663C4.83325 26.6663 6.83325 29.333 11.4999 29.333H22.1666C26.8333 29.333 28.8333 26.6663 28.8333 22.6663V14.453C28.8333 13.7196 28.2333 13.1196 27.4999 13.1196ZM13.1133 24.2796C13.0466 24.333 12.9799 24.3996 12.9133 24.4396C12.8333 24.493 12.7533 24.533 12.6733 24.5596C12.5933 24.5996 12.5133 24.6263 12.4333 24.6396C12.3399 24.653 12.2599 24.6663 12.1666 24.6663C11.9933 24.6663 11.8199 24.6263 11.6599 24.5596C11.4866 24.493 11.3533 24.3996 11.2199 24.2796C10.9799 24.0263 10.8333 23.6796 10.8333 23.333C10.8333 22.9863 10.9799 22.6396 11.2199 22.3863C11.3533 22.2663 11.4866 22.173 11.6599 22.1063C11.8999 21.9996 12.1666 21.973 12.4333 22.0263C12.5133 22.0396 12.5933 22.0663 12.6733 22.1063C12.7533 22.133 12.8333 22.173 12.9133 22.2263C12.9799 22.2796 13.0466 22.333 13.1133 22.3863C13.3533 22.6396 13.4999 22.9863 13.4999 23.333C13.4999 23.6796 13.3533 24.0263 13.1133 24.2796ZM13.1133 19.613C12.8599 19.853 12.5133 19.9996 12.1666 19.9996C11.8199 19.9996 11.4733 19.853 11.2199 19.613C10.9799 19.3596 10.8333 19.013 10.8333 18.6663C10.8333 18.3196 10.9799 17.973 11.2199 17.7196C11.5933 17.3463 12.1799 17.2263 12.6733 17.4396C12.8466 17.5063 12.9933 17.5996 13.1133 17.7196C13.3533 17.973 13.4999 18.3196 13.4999 18.6663C13.4999 19.013 13.3533 19.3596 13.1133 19.613ZM17.7799 24.2796C17.5266 24.5196 17.1799 24.6663 16.8333 24.6663C16.4866 24.6663 16.1399 24.5196 15.8866 24.2796C15.6466 24.0263 15.4999 23.6796 15.4999 23.333C15.4999 22.9863 15.6466 22.6396 15.8866 22.3863C16.3799 21.893 17.2866 21.893 17.7799 22.3863C18.0199 22.6396 18.1666 22.9863 18.1666 23.333C18.1666 23.6796 18.0199 24.0263 17.7799 24.2796ZM17.7799 19.613C17.7133 19.6663 17.6466 19.7196 17.5799 19.773C17.4999 19.8263 17.4199 19.8663 17.3399 19.893C17.2599 19.933 17.1799 19.9596 17.0999 19.973C17.0066 19.9863 16.9266 19.9996 16.8333 19.9996C16.4866 19.9996 16.1399 19.853 15.8866 19.613C15.6466 19.3596 15.4999 19.013 15.4999 18.6663C15.4999 18.3196 15.6466 17.973 15.8866 17.7196C16.0066 17.5996 16.1533 17.5063 16.3266 17.4396C16.8199 17.2263 17.4066 17.3463 17.7799 17.7196C18.0199 17.973 18.1666 18.3196 18.1666 18.6663C18.1666 19.013 18.0199 19.3596 17.7799 19.613ZM22.4466 24.2796C22.1933 24.5196 21.8466 24.6663 21.4999 24.6663C21.1533 24.6663 20.8066 24.5196 20.5533 24.2796C20.3133 24.0263 20.1666 23.6796 20.1666 23.333C20.1666 22.9863 20.3133 22.6396 20.5533 22.3863C21.0466 21.893 21.9533 21.893 22.4466 22.3863C22.6866 22.6396 22.8333 22.9863 22.8333 23.333C22.8333 23.6796 22.6866 24.0263 22.4466 24.2796ZM22.4466 19.613C22.3799 19.6663 22.3133 19.7196 22.2466 19.773C22.1666 19.8263 22.0866 19.8663 22.0066 19.893C21.9266 19.933 21.8466 19.9596 21.7666 19.973C21.6733 19.9863 21.5799 19.9996 21.4999 19.9996C21.1533 19.9996 20.8066 19.853 20.5533 19.613C20.3133 19.3596 20.1666 19.013 20.1666 18.6663C20.1666 18.3196 20.3133 17.973 20.5533 17.7196C20.6866 17.5996 20.8199 17.5063 20.9933 17.4396C21.2333 17.333 21.4999 17.3063 21.7666 17.3596C21.8466 17.373 21.9266 17.3996 22.0066 17.4396C22.0866 17.4663 22.1666 17.5063 22.2466 17.5596C22.3133 17.613 22.3799 17.6663 22.4466 17.7196C22.6866 17.973 22.8333 18.3196 22.8333 18.6663C22.8333 19.013 22.6866 19.3596 22.4466 19.613Z" fill="#1E293B"/>
</svg>
