<svg width="32" height="32" viewBox="0 0 32 32" fill="none" xmlns="http://www.w3.org/2000/svg">
<path d="M26.6666 15.9998V23.9998C26.6666 26.9465 24.2799 29.3332 21.3333 29.3332H10.6666C7.71992 29.3332 5.33325 26.9465 5.33325 23.9998V15.9998C5.33325 15.2665 5.93325 14.6665 6.66659 14.6665H9.29325C10.0266 14.6665 10.6266 15.2665 10.6266 15.9998V20.1865C10.6266 21.1732 11.1733 22.0798 12.0399 22.5465C12.4266 22.7598 12.8533 22.8665 13.2933 22.8665C13.7999 22.8665 14.3066 22.7198 14.7466 22.4265L16.0133 21.5998L17.1866 22.3865C17.9999 22.9332 19.0399 22.9998 19.9066 22.5332C20.7866 22.0665 21.3333 21.1732 21.3333 20.1732V15.9998C21.3333 15.2665 21.9333 14.6665 22.6666 14.6665H25.3333C26.0666 14.6665 26.6666 15.2665 26.6666 15.9998Z" fill="#1E293B"/>
<path d="M28.6666 9.33317V10.6665C28.6666 12.1332 27.9599 13.3332 25.9999 13.3332H5.99992C3.95992 13.3332 3.33325 12.1332 3.33325 10.6665V9.33317C3.33325 7.8665 3.95992 6.6665 5.99992 6.6665H25.9999C27.9599 6.6665 28.6666 7.8665 28.6666 9.33317Z" fill="#1E293B"/>
<path d="M15.5199 6.66659H8.15988C7.70654 6.17326 7.71988 5.41326 8.19988 4.93326L10.0932 3.03992C10.5865 2.54659 11.3999 2.54659 11.8932 3.03992L15.5199 6.66659Z" fill="#1E293B"/>
<path d="M23.8268 6.66659H16.4668L20.0935 3.03992C20.5868 2.54659 21.4001 2.54659 21.8935 3.03992L23.7868 4.93326C24.2668 5.41326 24.2801 6.17326 23.8268 6.66659Z" fill="#1E293B"/>
<path d="M18.6266 14.6665C19.3599 14.6665 19.9599 15.2665 19.9599 15.9998V20.1732C19.9599 21.2398 18.7733 21.8798 17.8933 21.2798L16.6933 20.4798C16.2533 20.1865 15.6799 20.1865 15.2266 20.4798L13.9733 21.3065C13.0933 21.8932 11.9199 21.2532 11.9199 20.1998V15.9998C11.9199 15.2665 12.5199 14.6665 13.2533 14.6665H18.6266Z" fill="#1E293B"/>
</svg>
