<svg width="32" height="32" viewBox="0 0 32 32" fill="none" xmlns="http://www.w3.org/2000/svg">
<path d="M12.0001 2.6665C8.50675 2.6665 5.66675 5.5065 5.66675 8.99984C5.66675 12.4265 8.34675 15.1998 11.8401 15.3198C11.9467 15.3065 12.0534 15.3065 12.1334 15.3198C12.1601 15.3198 12.1734 15.3198 12.2001 15.3198C12.2134 15.3198 12.2134 15.3198 12.2267 15.3198C15.6401 15.1998 18.3201 12.4265 18.3334 8.99984C18.3334 5.5065 15.4934 2.6665 12.0001 2.6665Z" fill="#1E293B"/>
<path d="M18.7733 18.8663C15.0533 16.3863 8.98661 16.3863 5.23995 18.8663C3.54661 19.9997 2.61328 21.533 2.61328 23.173C2.61328 24.813 3.54661 26.333 5.22661 27.453C7.09328 28.7063 9.54661 29.333 11.9999 29.333C14.4533 29.333 16.9066 28.7063 18.7733 27.453C20.4533 26.3197 21.3866 24.7997 21.3866 23.1463C21.3733 21.5063 20.4533 19.9863 18.7733 18.8663Z" fill="#1E293B"/>
<path d="M26.6535 9.78664C26.8668 12.3733 25.0268 14.64 22.4801 14.9466C22.4668 14.9466 22.4668 14.9466 22.4535 14.9466H22.4135C22.3335 14.9466 22.2535 14.9466 22.1868 14.9733C20.8935 15.04 19.7068 14.6266 18.8135 13.8666C20.1868 12.64 20.9735 10.8 20.8135 8.79997C20.7201 7.71997 20.3468 6.7333 19.7868 5.8933C20.2935 5.63997 20.8801 5.47997 21.4801 5.42664C24.0935 5.19997 26.4268 7.14664 26.6535 9.78664Z" fill="#1E293B"/>
<path d="M29.32 22.1199C29.2133 23.4132 28.3867 24.5332 27 25.2932C25.6667 26.0265 23.9867 26.3732 22.32 26.3332C23.28 25.4665 23.84 24.3865 23.9467 23.2399C24.08 21.5865 23.2933 19.9999 21.72 18.7332C20.8267 18.0265 19.7867 17.4665 18.6533 17.0532C21.6 16.1999 25.3067 16.7732 27.5867 18.6132C28.8133 19.5999 29.44 20.8399 29.32 22.1199Z" fill="#1E293B"/>
</svg>
