<svg width="24" height="24" viewBox="0 0 24 24" fill="none" xmlns="http://www.w3.org/2000/svg">
<path d="M20.41 6.96043V8.79043C20.41 9.43043 20.11 10.0304 19.59 10.4004L8.58997 18.4604C7.87997 18.9804 6.90997 18.9804 6.20997 18.4504L4.76997 17.3704C4.11997 16.8804 3.58997 15.8204 3.58997 15.0104V6.96043C3.58997 5.84043 4.44997 4.60043 5.49997 4.21043L10.97 2.16043C11.54 1.95043 12.46 1.95043 13.03 2.16043L18.5 4.21043C19.55 4.60043 20.41 5.84043 20.41 6.96043Z" fill="#0EA5E9"/>
<path d="M18.82 12.3404C19.48 11.8604 20.41 12.3304 20.41 13.1504V15.0304C20.41 15.8404 19.88 16.8904 19.23 17.3804L13.76 21.4704C13.28 21.8204 12.64 22.0004 12 22.0004C11.36 22.0004 10.72 21.8204 10.24 21.4604L9.40998 20.8404C8.86998 20.4404 8.86998 19.6304 9.41998 19.2304L18.82 12.3404Z" fill="#0EA5E9"/>
</svg>
