<svg width="32" height="32" viewBox="0 0 32 32" fill="none" xmlns="http://www.w3.org/2000/svg">
<path d="M9.65341 2.6665H7.12008C4.20008 2.6665 2.66675 4.19984 2.66675 7.1065V9.63984C2.66675 12.5465 4.20008 14.0798 7.10675 14.0798H9.64008C12.5467 14.0798 14.0801 12.5465 14.0801 9.63984V7.1065C14.0934 4.19984 12.5601 2.6665 9.65341 2.6665Z" fill="#1E293B"/>
<path d="M24.8933 2.6665H22.3599C19.4533 2.6665 17.9199 4.19984 17.9199 7.1065V9.63984C17.9199 12.5465 19.4533 14.0798 22.3599 14.0798H24.8933C27.7999 14.0798 29.3333 12.5465 29.3333 9.63984V7.1065C29.3333 4.19984 27.7999 2.6665 24.8933 2.6665Z" fill="#1E293B"/>
<path d="M24.8933 17.9062H22.3599C19.4533 17.9062 17.9199 19.4396 17.9199 22.3463V24.8796C17.9199 27.7863 19.4533 29.3196 22.3599 29.3196H24.8933C27.7999 29.3196 29.3333 27.7863 29.3333 24.8796V22.3463C29.3333 19.4396 27.7999 17.9062 24.8933 17.9062Z" fill="#1E293B"/>
<path d="M9.65341 17.9062H7.12008C4.20008 17.9062 2.66675 19.4396 2.66675 22.3463V24.8796C2.66675 27.7996 4.20008 29.3329 7.10675 29.3329H9.64008C12.5467 29.3329 14.0801 27.7996 14.0801 24.8929V22.3596C14.0934 19.4396 12.5601 17.9062 9.65341 17.9062Z" fill="#1E293B"/>
</svg>
